<svg version="1" xmlns="http://www.w3.org/2000/svg" width="2601.333" height="2601.333" viewBox="0 0 1951.000000 1951.000000"><path d="M924.5 2C830.7 7.6 750 23.1 664 52c-244.4 82-448.2 260.5-562.5 492.5C5.4 739.6-22.6 958.9 21.1 1173c63.6 311.4 278.5 573.9 572.4 699.5 96.7 41.3 196.1 65.7 306 75.1 25.4 2.1 100.2 3 127.5 1.5 136.4-7.7 261.3-40.3 381-99.7 133.4-66.1 247.1-159.1 338.9-277.2 82.3-106 141.8-227.5 173.6-355.2 21.1-84.4 29.9-156 29.9-242-.1-60.3-3.8-105.4-13.4-162.7-30.8-182.7-111.6-349.4-237-489.3-18.3-20.4-60.5-62.2-80.1-79.3C1507.5 145.6 1381 76.8 1240 37c-62.1-17.5-126.3-28.6-196.5-34.1-17.9-1.3-100.6-2-119-.9zM1049 5.4c90.3 7.4 172.8 24.8 253.2 53.5 167 59.7 313.9 163.4 427.4 301.7 10.9 13.2 36.9 47.5 41.9 55.2l2.9 4.3-123 123L1528.5 666l19.6 19.7c16.6 16.8 180.6 184 192.1 195.8l3.8 4 84.9-84.9 84.8-84.8 3.1 11.9c7.4 27.9 13.1 54.4 18.2 84.8 21.6 128.2 17.6 258.2-11.9 385.5-5.1 21.7-7.6 30.5-8.5 30.4-.9-.2-83-81.7-585.5-581.8L984.6 303.9l-7.1 7.3c-3.9 4-86.2 86.6-182.9 183.4L618.9 670.8l108.5 108.8 108.5 108.9 46.8-46.5c25.7-25.6 59.5-59.1 75-74.5l28.3-28 29.7 29.6c16.4 16.2 174.7 173.7 351.8 350 177.1 176.3 341.8 340.1 366 364l43.9 43.6-7.4 10.4c-23.8 33.6-57.5 74.8-80.6 98.6l-8.9 9.1-317-1.9c-174.3-1-333.2-2-353-2.1l-36-.3 180.9-181.3 180.9-181.2-108.9-109-108.8-109-74.8 74.7-74.7 74.7-39.3-38.9C802.8 1044.7 177 421.6 177 420.9c0-1.1 23.4-33 34.5-47 46.6-58.6 96.3-108.9 153-154.8C508.7 102.4 680.4 30.4 865 9.1c15.2-1.8 46-4.3 67-5.5 16.8-.9 98.6.3 117 1.8zM188 866.7c317.6 315.9 777 773.6 776.8 773.8-.2.1-158-.6-350.8-1.7l-350.5-1.9-5.3-5.7c-11.5-12.2-32.2-36.5-45.2-52.8-14.6-18.3-34-44.6-34-46.1 0-.4 4.5-5.3 10.1-10.8 5.5-5.5 60.4-60.7 122-122.6L423 1286.2l-107.7-109.6-107.7-109.7-84.8 84.8c-46.6 46.6-84.8 84.4-84.8 84 0-.5-1.8-7.7-3.9-16C-.3 1086.4-6 948.1 17 811.4c5.4-32.2 19.2-93.4 20.9-93.4.4 0 67.9 66.9 150.1 148.7z"/></svg>